Coordinates
version=1
nRows=49
nColumns=12
inDegrees=yes

Units are S.I. units (second, meters, Newtons, ...)
Angles are in degrees

endheader
time	SC_y	SC_z	SC_x	AC_y	AC_z	AC_x	GH_y	GH_z	GH_yy	EL_x	PS_y
       0.0              -44.62         -2.026          38.66           38.8          -18.5          16.79         -121.8          44.72         -13.18          64.12          108.4
   0.03731              -44.62         -2.024          38.66           38.8          -18.5          16.79         -121.8          44.72         -13.17          64.13          108.4
   0.07462              -44.61         -2.021          38.66           38.8          -18.5          16.79         -121.7          44.72         -13.15          64.13          108.4
    0.1119              -44.61         -2.019          38.66           38.8          -18.5          16.79         -121.7          44.71         -13.13          64.14          108.4
    0.1492               -44.6         -2.016          38.66           38.8          -18.5          16.78         -121.6          44.71         -13.11          64.14          108.4
    0.1866               -44.6         -2.014          38.65           38.8          -18.5          16.78         -121.6           44.7         -13.09          64.15          108.4
    0.2239               -44.6         -2.011          38.65           38.8          -18.5          16.78         -121.5           44.7         -13.06          64.16          108.4
    0.2612              -44.59         -2.008          38.65           38.8          -18.5          16.78         -121.5           44.7         -13.04          64.17          108.4
    0.2985              -44.58         -2.004          38.65           38.8          -18.5          16.77         -121.4          44.69         -13.01          64.17          108.4
    0.3358              -44.58         -2.001          38.65           38.8          -18.5          16.77         -121.3          44.69         -12.98          64.18          108.4
    0.3731              -44.57         -1.997          38.65           38.8          -18.5          16.77         -121.3          44.68         -12.95          64.19          108.4
    0.4104              -44.56         -1.993          38.64           38.8          -18.5          16.76         -121.2          44.68         -12.92           64.2          108.4
    0.4477              -44.56         -1.988          38.64           38.8          -18.5          16.76         -121.1          44.67         -12.88          64.21          108.4
    0.4851              -44.55         -1.983          38.64           38.8          -18.5          16.75         -121.0          44.66         -12.84          64.23          108.4
    0.5224              -44.54         -1.978          38.64           38.8          -18.5          16.75         -120.9          44.66          -12.8          64.24          108.4
    0.5597              -44.53         -1.972          38.63           38.8          -18.5          16.74         -120.8          44.65         -12.76          64.25          108.4
     0.597              -44.52         -1.966          38.63          38.79          -18.5          16.74         -120.7          44.64         -12.71          64.27          108.4
    0.6343              -44.51         -1.959          38.63          38.79          -18.5          16.73         -120.6          44.63         -12.65          64.28          108.4
    0.6716              -44.49         -1.952          38.62          38.79          -18.5          16.72         -120.5          44.62         -12.59           64.3          108.4
    0.7089              -44.48         -1.944          38.62          38.79          -18.5          16.71         -120.3          44.61         -12.53          64.32          108.4
    0.7462              -44.47         -1.935          38.62          38.79          -18.5          16.71         -120.2           44.6         -12.46          64.34          108.4
    0.7836              -44.45         -1.925          38.61          38.79         -18.51           16.7         -120.0          44.59         -12.38          64.37          108.4
    0.8209              -44.43         -1.915          38.61          38.79         -18.51          16.69         -119.8          44.57          -12.3          64.39          108.4
    0.8582              -44.41         -1.903           38.6          38.79         -18.51          16.67         -119.6          44.56          -12.2          64.42          108.4
    0.8955              -44.39         -1.889          38.59          38.79         -18.51          16.66         -119.3          44.54          -12.1          64.45          108.4
    0.9328              -44.36         -1.875          38.59          38.78         -18.51          16.65         -119.1          44.52         -11.98          64.49          108.4
    0.9701              -44.33         -1.858          38.58          38.78         -18.51          16.63         -118.8           44.5         -11.85          64.53          108.4
     1.007               -44.3         -1.839          38.57          38.78         -18.51          16.61         -118.4          44.47          -11.7          64.58          108.4
     1.045              -44.27         -1.818          38.56          38.78         -18.52          16.59         -118.1          44.45         -11.53          64.63          108.4
     1.082              -44.22         -1.794          38.55          38.78         -18.52          16.57         -117.6          44.42         -11.34          64.69          108.4
     1.119              -44.18         -1.767          38.54          38.77         -18.52          16.54         -117.1          44.38         -11.12          64.75          108.4
     1.157              -44.12         -1.736          38.52          38.77         -18.52          16.51         -116.6          44.34         -10.87          64.83          108.4
     1.194              -44.06         -1.699           38.5          38.77         -18.53          16.48         -115.9          44.29         -10.58          64.92          108.3
     1.231              -43.99         -1.657          38.48          38.76         -18.53          16.44         -115.2          44.23         -10.25          65.02          108.3
     1.269               -43.9         -1.608          38.46          38.76         -18.54          16.39         -114.3          44.17         -9.857          65.14          108.3
     1.306              -43.81          -1.55          38.43          38.75         -18.54          16.33         -113.2          44.09         -9.395          65.28          108.3
     1.343              -43.69         -1.481           38.4          38.74         -18.55          16.27         -112.0           44.0         -8.846          65.45          108.3
     1.381              -43.55         -1.399          38.36          38.73         -18.56          16.19         -110.5          43.89         -8.189          65.65          108.3
     1.418              -43.37         -1.299          38.31          38.72         -18.57          16.09         -108.7          43.76         -7.393           65.9          108.3
     1.455              -43.16         -1.177          38.26          38.71         -18.58          15.97         -106.5           43.6         -6.421           66.2          108.3
     1.492              -42.91         -1.026          38.19          38.69         -18.59          15.83         -103.8           43.4         -5.221          66.57          108.2
      1.53              -42.58        -0.8382           38.1          38.67         -18.61          15.65         -100.4          43.15         -3.725          67.02          108.2
     1.567              -42.18        -0.6015          37.98          38.64         -18.63          15.42         -96.18          42.84          -1.84           67.6          108.1
     1.604              -41.66        -0.3006          37.84          38.61         -18.66          15.13         -90.77          42.44         0.5559          68.34          108.1
     1.642               -41.0        0.08452          37.66          38.57          -18.7          14.76         -83.84          41.93          3.623          69.28          108.0
     1.679              -40.15         0.5787          37.42          38.51         -18.75          14.28         -74.96          41.28          7.558          70.49          107.9
     1.716              -39.07           1.21          37.13          38.44         -18.81          13.67         -63.61          40.45          12.58          72.03          107.8
     1.754              -37.71          2.004          36.75          38.35         -18.88          12.91         -49.33           39.4          18.91          73.97          107.7
     1.791              -36.05          2.971          36.29          38.24         -18.98          11.97         -31.94          38.12          26.61          76.34          107.5
